<svg width="122" height="19" viewBox="0 0 122 19" fill="none" xmlns="http://www.w3.org/2000/svg">
<g opacity="0.7">
<rect x="15.1603" y="5.94097" width="13.2687" height="3.66034" transform="rotate(135 15.1603 5.94097)" fill="#212121"/>
<path d="M16.4541 2.05869C17.1688 2.77341 17.1688 3.93221 16.4541 4.64694L15.807 5.294L13.2188 2.70575L13.8659 2.05869C14.5806 1.34396 15.7394 1.34396 16.4541 2.05869Z" fill="#212121"/>
<path d="M2.03187 15.7453L3.18958 12.7352L5.77783 15.3235L2.76777 16.4812C2.30724 16.6583 1.85474 16.2058 2.03187 15.7453Z" fill="#212121"/>
<path d="M30.3035 4.51191V8.22924H34.6769V9.92391H30.3035V13.8052H35.2235V15.4999H28.2262V2.81724H35.2235V4.51191H30.3035ZM37.0897 10.4341C37.0897 9.42583 37.2963 8.53295 37.7093 7.75546C38.1345 6.97798 38.7054 6.37665 39.4222 5.95146C40.1511 5.51413 40.9589 5.29546 41.8457 5.29546C42.5017 5.29546 43.1456 5.44124 43.7773 5.7328C44.4211 6.0122 44.9314 6.3888 45.308 6.86257V2.01546H47.4035V15.4999H45.308V13.9875C44.9678 14.4734 44.494 14.8743 43.8866 15.1901C43.2914 15.506 42.605 15.6639 41.8275 15.6639C40.9529 15.6639 40.1511 15.4452 39.4222 15.0079C38.7054 14.5584 38.1345 13.9389 37.7093 13.1492C37.2963 12.3475 37.0897 11.4424 37.0897 10.4341ZM45.308 10.4706C45.308 9.77813 45.1622 9.1768 44.8706 8.66657C44.5912 8.15635 44.2207 7.76761 43.7591 7.50035C43.2974 7.23309 42.7994 7.09946 42.2649 7.09946C41.7303 7.09946 41.2323 7.23309 40.7706 7.50035C40.309 7.75546 39.9324 8.13813 39.6409 8.64835C39.3614 9.14643 39.2217 9.74169 39.2217 10.4341C39.2217 11.1266 39.3614 11.734 39.6409 12.2564C39.9324 12.7787 40.309 13.1796 40.7706 13.459C41.2444 13.7263 41.7425 13.8599 42.2649 13.8599C42.7994 13.8599 43.2974 13.7263 43.7591 13.459C44.2207 13.1918 44.5912 12.803 44.8706 12.2928C45.1622 11.7704 45.308 11.163 45.308 10.4706ZM51.1889 4.12924C50.8123 4.12924 50.4965 4.00169 50.2413 3.74657C49.9862 3.49146 49.8587 3.17561 49.8587 2.79902C49.8587 2.42243 49.9862 2.10658 50.2413 1.85146C50.4965 1.59635 50.8123 1.4688 51.1889 1.4688C51.5533 1.4688 51.8631 1.59635 52.1182 1.85146C52.3733 2.10658 52.5009 2.42243 52.5009 2.79902C52.5009 3.17561 52.3733 3.49146 52.1182 3.74657C51.8631 4.00169 51.5533 4.12924 51.1889 4.12924ZM52.2093 5.45946V15.4999H50.132V5.45946H52.2093ZM57.3603 7.15413V12.7119C57.3603 13.0885 57.4453 13.3618 57.6154 13.5319C57.7976 13.6898 58.1013 13.7688 58.5265 13.7688H59.802V15.4999H58.162C57.2266 15.4999 56.5099 15.2812 56.0118 14.8439C55.5137 14.4066 55.2647 13.6959 55.2647 12.7119V7.15413H54.0803V5.45946H55.2647V2.96302H57.3603V5.45946H59.802V7.15413H57.3603ZM75.3062 6.60746C75.3062 7.25132 75.1543 7.85872 74.8506 8.42969C74.5469 9.00065 74.061 9.46835 73.3928 9.8328C72.7247 10.1851 71.8682 10.3612 70.8235 10.3612H68.5275V15.4999H66.4502V2.83546H70.8235C71.7953 2.83546 72.6153 3.00554 73.2835 3.34569C73.9638 3.67369 74.4679 4.12317 74.7959 4.69413C75.1361 5.26509 75.3062 5.90287 75.3062 6.60746ZM70.8235 8.66657C71.6131 8.66657 72.2023 8.49043 72.591 8.13813C72.9798 7.77369 73.1742 7.26346 73.1742 6.60746C73.1742 5.22257 72.3906 4.53013 70.8235 4.53013H68.5275V8.66657H70.8235ZM79.3647 6.91724C79.6684 6.40702 80.0693 6.0122 80.5674 5.7328C81.0776 5.44124 81.6789 5.29546 82.3714 5.29546V7.44569H81.8429C81.029 7.44569 80.4095 7.6522 79.9843 8.06524C79.5712 8.47828 79.3647 9.19502 79.3647 10.2155V15.4999H77.2874V5.45946H79.3647V6.91724ZM88.636 15.6639C87.6884 15.6639 86.832 15.4513 86.0667 15.0261C85.3013 14.5888 84.7 13.9814 84.2627 13.2039C83.8253 12.4143 83.6067 11.5032 83.6067 10.4706C83.6067 9.45013 83.8314 8.54509 84.2809 7.75546C84.7304 6.96583 85.3438 6.35843 86.1213 5.93324C86.8988 5.50806 87.7674 5.29546 88.7271 5.29546C89.6868 5.29546 90.5554 5.50806 91.3329 5.93324C92.1104 6.35843 92.7238 6.96583 93.1733 7.75546C93.6228 8.54509 93.8475 9.45013 93.8475 10.4706C93.8475 11.491 93.6167 12.3961 93.1551 13.1857C92.6935 13.9753 92.0618 14.5888 91.26 15.0261C90.4704 15.4513 89.5957 15.6639 88.636 15.6639ZM88.636 13.8599C89.1705 13.8599 89.6686 13.7324 90.1302 13.4772C90.604 13.2221 90.9867 12.8395 91.2782 12.3292C91.5698 11.819 91.7155 11.1995 91.7155 10.4706C91.7155 9.74169 91.5758 9.1282 91.2964 8.63013C91.017 8.11991 90.6465 7.73724 90.1849 7.48213C89.7233 7.22702 89.2252 7.09946 88.6907 7.09946C88.1561 7.09946 87.6581 7.22702 87.1964 7.48213C86.747 7.73724 86.3886 8.11991 86.1213 8.63013C85.8541 9.1282 85.7204 9.74169 85.7204 10.4706C85.7204 11.5518 85.9938 12.39 86.5404 12.9852C87.0993 13.5684 87.7978 13.8599 88.636 13.8599ZM100.11 7.15413H98.2518V15.4999H96.1562V7.15413H94.9718V5.45946H96.1562V4.7488C96.1562 3.59472 96.4599 2.7565 97.0673 2.23413C97.6869 1.69961 98.6527 1.43235 99.9647 1.43235V3.16346C99.333 3.16346 98.8896 3.28495 98.6344 3.52791C98.3793 3.75872 98.2518 4.16569 98.2518 4.7488V5.45946H100.11V7.15413ZM103.008 4.12924C102.632 4.12924 102.316 4.00169 102.061 3.74657C101.806 3.49146 101.678 3.17561 101.678 2.79902C101.678 2.42243 101.806 2.10658 102.061 1.85146C102.316 1.59635 102.632 1.4688 103.008 1.4688C103.373 1.4688 103.683 1.59635 103.938 1.85146C104.193 2.10658 104.32 2.42243 104.32 2.79902C104.32 3.17561 104.193 3.49146 103.938 3.74657C103.683 4.00169 103.373 4.12924 103.008 4.12924ZM104.029 5.45946V15.4999H101.951V5.45946H104.029ZM108.833 2.01546V15.4999H106.756V2.01546H108.833ZM120.763 10.2337C120.763 10.6103 120.739 10.9504 120.69 11.2541H113.019C113.079 12.0559 113.377 12.6998 113.911 13.1857C114.446 13.6716 115.102 13.9146 115.879 13.9146C116.997 13.9146 117.787 13.4469 118.248 12.5115H120.49C120.186 13.4347 119.633 14.194 118.831 14.7892C118.042 15.3724 117.058 15.6639 115.879 15.6639C114.92 15.6639 114.057 15.4513 113.292 15.0261C112.539 14.5888 111.943 13.9814 111.506 13.2039C111.081 12.4143 110.868 11.5032 110.868 10.4706C110.868 9.43798 111.075 8.53295 111.488 7.75546C111.913 6.96583 112.502 6.35843 113.255 5.93324C114.021 5.50806 114.895 5.29546 115.879 5.29546C116.827 5.29546 117.671 5.50198 118.412 5.91502C119.153 6.32806 119.73 6.91117 120.143 7.66435C120.557 8.40539 120.763 9.26183 120.763 10.2337ZM118.595 9.57769C118.582 8.81235 118.309 8.19887 117.775 7.73724C117.24 7.27561 116.578 7.0448 115.788 7.0448C115.072 7.0448 114.458 7.27561 113.948 7.73724C113.438 8.18672 113.134 8.8002 113.037 9.57769H118.595Z" fill="#212121"/>
</g>
</svg>
