<svg width="180" height="60" viewBox="0 0 180 60" fill="none" xmlns="http://www.w3.org/2000/svg">
<rect x="0.22229" y="0.499908" width="179.667" height="59" rx="9.11111" fill="#212121"/>
<path d="M36.6667 29.9999L50.3334 29.9999" stroke="#FCF5E5" stroke-width="2.27778" stroke-linecap="round"/>
<path d="M43.5001 36.8332V23.1666" stroke="#FCF5E5" stroke-width="2.27778" stroke-linecap="round"/>
<path d="M71.2161 35.9999H69.1387L62.8885 26.5426V35.9999H60.8112V23.3172H62.8885L69.1387 32.7564V23.3172H71.2161V35.9999ZM83.1462 30.7337C83.1462 31.1103 83.1219 31.4504 83.0733 31.7541H75.4018C75.4625 32.5559 75.7601 33.1998 76.2947 33.6857C76.8292 34.1716 77.4852 34.4146 78.2627 34.4146C79.3803 34.4146 80.1699 33.9469 80.6316 33.0115H82.8729C82.5692 33.9347 82.0164 34.694 81.2147 35.2892C80.425 35.8724 79.441 36.1639 78.2627 36.1639C77.303 36.1639 76.4404 35.9513 75.6751 35.5261C74.9219 35.0888 74.3267 34.4814 73.8893 33.7039C73.4641 32.9143 73.2516 32.0032 73.2516 30.9706C73.2516 29.938 73.4581 29.0329 73.8711 28.2555C74.2963 27.4658 74.8855 26.8584 75.6387 26.4332C76.404 26.0081 77.2787 25.7955 78.2627 25.7955C79.2102 25.7955 80.0545 26.002 80.7956 26.415C81.5366 26.8281 82.1136 27.4112 82.5267 28.1644C82.9397 28.9054 83.1462 29.7618 83.1462 30.7337ZM80.9778 30.0777C80.9656 29.3124 80.6923 28.6989 80.1578 28.2372C79.6233 27.7756 78.9612 27.5448 78.1716 27.5448C77.4548 27.5448 76.8413 27.7756 76.3311 28.2372C75.8209 28.6867 75.5172 29.3002 75.42 30.0777H80.9778ZM98.675 25.9595L95.559 35.9999H93.3723L91.3496 28.5835L89.327 35.9999H87.1403L84.0061 25.9595H86.1199L88.2154 34.0319L90.3474 25.9595H92.5159L94.5567 33.9955L96.6341 25.9595H98.675ZM113.817 27.1075C113.817 27.7513 113.665 28.3587 113.361 28.9297C113.058 29.5006 112.572 29.9684 111.904 30.3328C111.235 30.6851 110.379 30.8612 109.334 30.8612H107.038V35.9999H104.961V23.3355H109.334C110.306 23.3355 111.126 23.5055 111.794 23.8457C112.475 24.1737 112.979 24.6232 113.307 25.1941C113.647 25.7651 113.817 26.4029 113.817 27.1075ZM109.334 29.1666C110.124 29.1666 110.713 28.9904 111.102 28.6381C111.491 28.2737 111.685 27.7635 111.685 27.1075C111.685 25.7226 110.901 25.0301 109.334 25.0301H107.038V29.1666H109.334ZM120.153 36.1639C119.206 36.1639 118.349 35.9513 117.584 35.5261C116.819 35.0888 116.217 34.4814 115.78 33.7039C115.343 32.9143 115.124 32.0032 115.124 30.9706C115.124 29.9501 115.349 29.0451 115.798 28.2555C116.248 27.4658 116.861 26.8584 117.639 26.4332C118.416 26.0081 119.285 25.7955 120.244 25.7955C121.204 25.7955 122.073 26.0081 122.85 26.4332C123.628 26.8584 124.241 27.4658 124.691 28.2555C125.14 29.0451 125.365 29.9501 125.365 30.9706C125.365 31.991 125.134 32.8961 124.672 33.6857C124.211 34.4753 123.579 35.0888 122.777 35.5261C121.988 35.9513 121.113 36.1639 120.153 36.1639ZM120.153 34.3599C120.688 34.3599 121.186 34.2324 121.647 33.9772C122.121 33.7221 122.504 33.3395 122.795 32.8292C123.087 32.319 123.233 31.6995 123.233 30.9706C123.233 30.2417 123.093 29.6282 122.814 29.1301C122.534 28.6199 122.164 28.2372 121.702 27.9821C121.241 27.727 120.742 27.5995 120.208 27.5995C119.673 27.5995 119.175 27.727 118.714 27.9821C118.264 28.2372 117.906 28.6199 117.639 29.1301C117.371 29.6282 117.238 30.2417 117.238 30.9706C117.238 32.0518 117.511 32.89 118.058 33.4852C118.617 34.0684 119.315 34.3599 120.153 34.3599ZM131.063 36.1639C130.273 36.1639 129.563 36.0242 128.931 35.7448C128.311 35.4532 127.819 35.0645 127.455 34.5786C127.09 34.0805 126.896 33.5278 126.872 32.9204H129.022C129.058 33.3455 129.259 33.7039 129.623 33.9955C130 34.2749 130.468 34.4146 131.026 34.4146C131.609 34.4146 132.059 34.3052 132.375 34.0866C132.703 33.8558 132.867 33.5642 132.867 33.2119C132.867 32.8353 132.685 32.5559 132.32 32.3737C131.968 32.1915 131.403 31.991 130.625 31.7724C129.872 31.5658 129.259 31.3654 128.785 31.171C128.311 30.9766 127.898 30.679 127.546 30.2781C127.206 29.8772 127.036 29.3488 127.036 28.6928C127.036 28.1583 127.194 27.6724 127.509 27.235C127.825 26.7855 128.275 26.4332 128.858 26.1781C129.453 25.923 130.133 25.7955 130.899 25.7955C132.041 25.7955 132.958 26.087 133.65 26.6701C134.355 27.2411 134.732 28.0246 134.78 29.0208H132.703C132.666 28.5713 132.484 28.2129 132.156 27.9457C131.828 27.6784 131.385 27.5448 130.826 27.5448C130.279 27.5448 129.86 27.6481 129.569 27.8546C129.277 28.0611 129.131 28.3344 129.131 28.6746C129.131 28.9418 129.228 29.1666 129.423 29.3488C129.617 29.531 129.854 29.6768 130.133 29.7861C130.413 29.8833 130.826 30.0109 131.373 30.1688C132.101 30.3632 132.697 30.5636 133.158 30.7701C133.632 30.9645 134.039 31.2561 134.379 31.6448C134.719 32.0335 134.896 32.5498 134.908 33.1937C134.908 33.7646 134.75 34.2749 134.434 34.7244C134.118 35.1738 133.669 35.5261 133.085 35.7812C132.515 36.0364 131.84 36.1639 131.063 36.1639ZM139.576 27.6541V33.2119C139.576 33.5885 139.661 33.8618 139.831 34.0319C140.013 34.1898 140.317 34.2688 140.742 34.2688H142.018V35.9999H140.378C139.442 35.9999 138.726 35.7812 138.227 35.3439C137.729 34.9066 137.48 34.1959 137.48 33.2119V27.6541H136.296V25.9595H137.48V23.463H139.576V25.9595H142.018V27.6541H139.576Z" fill="#FCF5E5"/>
</svg>
